<svg xmlns="http://www.w3.org/2000/svg" width="130" height="52" fill="none" viewBox="0 0 130 52">
    <path fill="#231F20" d="M9.69 15.665c-5.33 0-9.69 4.36-9.69 9.69 0 5.382 4.36 9.689 9.69 9.689 5.383 0 9.689-4.36 9.689-9.69 0-5.33-4.307-9.69-9.69-9.69zm-.27 3.337c.7 0 1.238.538 1.238 1.238s-.538 1.238-1.238 1.238-1.238-.538-1.238-1.238.592-1.238 1.238-1.238zM3.714 23.04c.323 0 .592.27.592.592 0 .323-.269.593-.592.593a.597.597 0 0 1-.592-.593c-.054-.322.215-.592.592-.592zm1.346 5.33c0 .269-.215.43-.43.43H2.475a.425.425 0 0 1-.43-.43v-4.953c0-.215.161-.377.376-.377.216 0 .377.162.377.377V24.6h1.83c.27 0 .431.216.431.431v3.338zm10.55-5.276c.431 0 .754.377.754.808 0 .43-.376.807-.753.807a.828.828 0 0 1-.808-.807c0-.43.323-.808.808-.808zm1.723 6.89c0 .323-.269.593-.592.593H14.05a.597.597 0 0 1-.592-.593V23.578c0-.268.215-.484.484-.484.27 0 .485.216.485.485v1.507h2.368c.323 0 .592.27.592.592v4.306h-.054zm-5.113-.161c0 .485-.431.915-.916.915H6.998a.943.943 0 0 1-.915-.915V19.702c0-.43.323-.754.753-.754.431 0 .754.323.754.754v2.422h3.714c.485 0 .915.43.915.915v6.783zM22.232 21.155h1.615v1.508h.054c.753-1.185 1.938-1.777 3.337-1.777 1.292 0 2.422.485 2.853 1.777.7-1.13 1.938-1.777 3.284-1.777 2.045 0 3.445.861 3.445 3.015v7.643h-1.723v-6.836c0-1.292-.323-2.315-1.991-2.315-1.67 0-2.692 1.023-2.692 2.638v6.46h-1.722v-6.783c0-1.346-.431-2.315-1.938-2.315-2.046 0-2.8 1.884-2.8 2.638v6.46h-1.722V21.155zM43.44 20.886c3.285 0 5.06 2.369 5.06 5.437 0 3.014-1.776 5.437-5.06 5.437-3.283 0-5.06-2.369-5.06-5.437 0-3.015 1.723-5.437 5.06-5.437zm0 9.367c1.777 0 3.23-1.4 3.23-3.93 0-2.53-1.453-3.93-3.23-3.93-1.776 0-3.229 1.4-3.229 3.93 0 2.53 1.4 3.93 3.23 3.93zm.485-13.404h2.207l-2.637 2.853h-1.292l1.722-2.853zM54.692 31.545h-1.83l-3.876-10.39h1.938l2.907 8.667h.053l2.853-8.667h1.777l-3.822 10.39zM61.367 19.271h-1.723v-2.1h1.723v2.1zm-1.723 1.884h1.723v10.39h-1.723v-10.39zM63.627 17.172h1.723v14.372h-1.723V17.172zM126.986 21.37c-.054-.053-.108-.053-.216-.053h-.161v.377h.161c.108 0 .162 0 .216-.054.054-.054.054-.054.054-.108s0-.108-.054-.162z"/>
    <path fill="#231F20" d="M126.878 20.724c-.269 0-.538.108-.754.323-.215.216-.323.431-.323.754 0 .27.108.538.323.754.216.215.431.323.754.323.269 0 .538-.108.754-.323.215-.216.322-.43.322-.754 0-.27-.107-.538-.322-.753a1.065 1.065 0 0 0-.754-.323zm.161 1.777c-.107-.27-.215-.43-.269-.485-.054-.053-.107-.053-.161-.053h-.054v.538h-.323v-1.4h.646c.161 0 .323.054.377.108.107.054.107.162.107.27 0 .107-.053.16-.107.214-.054.054-.162.108-.269.162.053 0 .107.054.107.054.054.054.054.107.108.161 0 0 .054.162.215.377h-.377v.054zM121.764 24.008a1.861 1.861 0 0 0-.646-.646 1.914 1.914 0 0 0-1.023-.269c-.431 0-.754.108-1.023.27a1.861 1.861 0 0 0-.646.645c-.161.27-.269.593-.376.97-.054.376-.108.753-.108 1.13 0 .377.054.753.108 1.13.053.377.215.646.376.97.162.268.377.484.646.645.269.162.592.215 1.023.215.431 0 .754-.107 1.077-.215.269-.161.484-.377.646-.646.161-.269.269-.592.376-.969.054-.377.108-.753.108-1.13 0-.377-.054-.754-.108-1.13a4.031 4.031 0 0 0-.43-.97zM88.066 23.524a1.117 1.117 0 0 0-.538-.323 3.259 3.259 0 0 0-.808-.108c-.43 0-.753.054-1.022.216-.27.161-.485.323-.646.484-.162.215-.27.43-.323.646-.054.108-.054.27-.108.377h3.93c-.054-.592-.27-1.023-.485-1.292z"/>
    <path fill="#231F20" d="M103.516 0c-14.373 0-26 11.627-26 26s11.627 26 26 26c14.372 0 26-11.627 26-26-.054-14.373-11.682-26-26-26zM85.644 19.756l1.561-1.992s.054-.054.215-.054h2.961c.108 0 .054.054.054.054l-2.638 1.992s-.054.053-.215.053h-1.83c-.216.054-.108-.053-.108-.053zm4.199 11.035c-.862.538-1.884.807-3.069.807-.807 0-1.56-.107-2.26-.377a5.317 5.317 0 0 1-1.723-1.13c-.484-.484-.807-1.076-1.077-1.776-.269-.7-.376-1.454-.376-2.261 0-.808.107-1.507.376-2.207.27-.7.646-1.292 1.13-1.777.485-.484 1.077-.915 1.723-1.184.646-.269 1.4-.43 2.207-.43.915 0 1.67.161 2.369.538a4.654 4.654 0 0 1 1.669 1.4c.43.591.753 1.238.915 1.991.161.592.215 1.184.215 1.776v.647s0 .107-.107.107h-7.16c.054.323.108.592.162.861.107.323.269.539.43.7.162.162.377.323.646.377.27.108.592.162.97.162.537 0 .968-.108 1.291-.377.161-.108.323-.27.43-.377.108-.108.162-.27.216-.377v-.108s0-.107.162-.107h2.745c.108 0 .054.107.054.107l-.054.216c-.216.646-.43 1.184-.754 1.615-.323.538-.7.915-1.13 1.184zm12.219.592h-3.553c-.107 0-.215-.108-.215-.108l-1.884-2.853-1.884 2.853s-.054.108-.215.108h-3.5c-.107 0-.053-.108-.053-.108l3.768-5.49-3.23-4.63-.215-.377s-.054-.053.054-.053h3.606c.108 0 .162.053.162.053l1.56 2.369 1.562-2.368s.054-.054.161-.054h3.499c.108 0 .054.053.054.053l-3.499 4.953 3.822 5.544c.054 0 .108.108 0 .108zm2.423 4.522a1.987 1.987 0 0 1-1.992-1.992c0-1.077.915-1.992 1.992-1.992 1.076 0 1.991.915 1.991 1.992 0 1.13-.861 1.992-1.991 1.992zm1.561-4.63s0 .108-.108.108h-2.853c-.108 0-.108-.108-.108-.108l-.592-10.443s0-.107.108-.107h4.037c.108 0 .108.107.108.107l-.592 10.443zm8.343-8.29c0 .108-.107.108-.107.108h-1.938v4.737c0 .216 0 .377.054.539.053.107.053.215.107.215.054.054.108.054.216.108.107.053.323.053.538.053h.431c.107 0 .269-.053.376-.053l.216-.054s.107-.054.107.107v2.476c0 .108-.107.162-.107.162h-.108c-.269.054-.538.054-.807.054h-.862a8.85 8.85 0 0 1-1.238-.108c-.43-.054-.807-.161-1.13-.377a2.894 2.894 0 0 1-.808-.807c-.215-.377-.269-.808-.269-1.346v-5.652h-1.561c-.108 0-.108-.108-.108-.108v-2.153s0-.107.108-.107h1.561v-2.907s0-.108.108-.108h3.068c.108 0 .108.108.108.108v2.907h1.938c.107 0 .107.107.107.107v2.1zm10.766 5.384a5.027 5.027 0 0 1-1.13 1.776 5.326 5.326 0 0 1-1.723 1.13c-.699.27-1.453.377-2.26.377-.808 0-1.562-.108-2.261-.377a4.805 4.805 0 0 1-1.723-1.13 5.027 5.027 0 0 1-1.13-1.776c-.27-.7-.377-1.454-.377-2.315s.107-1.615.377-2.315c.269-.7.646-1.292 1.13-1.776a5.327 5.327 0 0 1 1.723-1.13c.699-.27 1.453-.377 2.261-.377.807 0 1.561.107 2.26.376.7.27 1.238.646 1.723 1.13a5.028 5.028 0 0 1 1.13 1.777c.27.7.377 1.453.377 2.315a5.361 5.361 0 0 1-.377 2.315zm2.369-5.437a1.434 1.434 0 0 1-.646.161c-.215 0-.431-.054-.646-.161a1.054 1.054 0 0 1-.484-.485 1.43 1.43 0 0 1-.162-.646c0-.215.054-.43.162-.646.107-.215.269-.377.484-.484.215-.108.431-.162.646-.162.215 0 .431.054.646.162.215.108.377.269.484.484.108.216.162.43.162.646 0 .216-.054.43-.162.646a2.056 2.056 0 0 1-.484.485z"/>
</svg>
